<svg xmlns="http://www.w3.org/2000/svg" width="104" height="104" viewBox="0 0 104 104"><defs><style>.a,.d{fill:none;}.b,.c{fill:#035e73;}.b{opacity:0.2;}.d{stroke:#035e73;stroke-linecap:round;stroke-linejoin:round;stroke-width:8px;}</style></defs><rect class="a" width="104" height="104"/><rect class="b" width="84.5" height="32.5" rx="8" transform="translate(9.75 52)"/><circle class="c" cx="4.875" cy="4.875" r="4.875" transform="translate(71.5 63.375)"/><path class="d" d="M85.75,128h19.5a3.25,3.25,0,0,1,3.25,3.25v26a3.25,3.25,0,0,1-3.25,3.25h-78A3.25,3.25,0,0,1,24,157.25v-26A3.25,3.25,0,0,1,27.25,128h19.5" transform="translate(-14.25 -76)"/><line class="d" y2="42.25" transform="translate(52 9.75)"/><path class="d" d="M80,80,99.5,99.5,119,80" transform="translate(-47.5 -47.5)"/></svg>