<svg xmlns="http://www.w3.org/2000/svg" width="807.369" height="1058.766" viewBox="0 0 807.369 1058.766">
  <g id="Patterns" transform="translate(-156 565)" opacity="0.496" style="mix-blend-mode: soft-light;isolation: isolate">
    <g id="Oreti" transform="translate(156 -565)">
      <g id="Group_112" data-name="Group 112">
        <path id="Shape" d="M118.6-182a55.568,55.568,0,0,1,55.6,55.538V141.974a55.568,55.568,0,0,1-55.6,55.538H63V-126.462A55.568,55.568,0,0,1,118.6-182Z" transform="translate(-63 259.353)" fill="#f2f2f2" fill-rule="evenodd"/>
        <path id="Shape-2" data-name="Shape" d="M669.6,94a55.569,55.569,0,0,1,55.6,55.541V642.009a55.569,55.569,0,0,1-55.6,55.541q-30.706,0-55.6,37.028V149.541A55.569,55.569,0,0,1,669.6,94Z" transform="translate(-281.02 150.145)" fill="#1ebfbf" fill-rule="evenodd"/>
        <path id="Shape-3" data-name="Shape" d="M669.6-310a55.579,55.579,0,0,1,55.6,55.56V238.192a55.579,55.579,0,0,1-55.6,55.56q-30.706,0-55.6,55.56V-254.44A55.579,55.579,0,0,1,669.6-310Z" transform="translate(-281.02 310)" fill="#f9f9f9" fill-rule="evenodd"/>
        <path id="Shape-4" data-name="Shape" d="M118.6,814a55.568,55.568,0,0,1,55.6,55.538v268.435a55.568,55.568,0,0,1-55.6,55.539H63V869.538A55.568,55.568,0,0,1,118.6,814Z" transform="translate(-63 -134.746)" fill="#02303b" fill-rule="evenodd"/>
        <path id="Shape-5" data-name="Shape" d="M468.785,468.851H247V-52.817h90.562V-56H468.785Zm0,1.813V486.98H247V470.664Zm0,19.338v14.806H247V490Zm0,19.64v12.993H247V509.642Zm0,19.64V540.16H247V529.282Zm0,18.734v10.576H247V548.016Zm0,20.245v7.232q0,.161,0,.322H247q0-.161,0-.322v-7.232ZM467.534,587.3a55.348,55.348,0,0,1-1.873,6.647H250.124a55.331,55.331,0,0,1-1.873-6.647Zm-8.249,19.338a55.828,55.828,0,0,1-3.918,5.137H260.419a55.839,55.839,0,0,1-3.918-5.137Zm-23.3,19.64a55.106,55.106,0,0,1-22.644,4.835H302.446a55.106,55.106,0,0,1-22.644-4.835H435.983Z" transform="translate(-135.805 209.497)" fill="#035e73" fill-rule="evenodd"/>
        <g id="Shape-6" data-name="Shape" transform="translate(111.195 153.341)">
          <g id="Group_108" data-name="Group 108" transform="translate(0 0)">
            <path id="Shape-7" data-name="Shape" d="M0,.741H221.785V207.127a55.488,55.488,0,0,1-55.446,55.53,55.488,55.488,0,0,0-55.446,55.53v67.037A110.976,110.976,0,0,1,0,496.282Z" transform="translate(0 -0.741)" fill="#099cbe"/>
          </g>
        </g>
        <path id="Shape-8" data-name="Shape" d="M1093.194,413.983V733.138a55.579,55.579,0,0,1-55.6,55.56q-30.706,0-55.6,55.56V366.612a55.61,55.61,0,0,0,54.993,47.371Z" transform="translate(-426.631 42.277)" fill="#3d2c42" fill-rule="evenodd"/>
        <g id="Shape-9" data-name="Shape" transform="translate(555.369 567.455)">
          <g id="Group_109" data-name="Group 109" transform="translate(0 0)">
            <path id="Shape-10" data-name="Shape" d="M55.542,0a55.517,55.517,0,0,1,55.542,55.492V323.7A55.542,55.542,0,0,1,0,323.7V55.492A55.517,55.517,0,0,1,55.542,0Z" fill="#02303b"/>
          </g>
        </g>
        <path id="Shape-11" data-name="Shape" d="M147.669,614.06a9.737,9.737,0,1,1,9.669-9.737A9.7,9.7,0,0,1,147.669,614.06Zm0,47.293a9.737,9.737,0,1,1,9.669-9.737A9.7,9.7,0,0,1,147.669,661.353Zm0-141.879a9.737,9.737,0,1,1,9.669-9.737A9.7,9.7,0,0,1,147.669,519.474Zm0,47.293a9.737,9.737,0,1,1,9.669-9.737A9.7,9.7,0,0,1,147.669,566.767Z" transform="translate(-92.676 -10.502)" fill="#1ebfbf" fill-rule="evenodd"/>
        <g id="Shape-12" data-name="Shape" transform="translate(339.023 153.341)">
          <g id="Group_110" data-name="Group 110" transform="translate(0 0)">
            <ellipse id="Shape-13" data-name="Shape" cx="105.598" cy="105.566" rx="105.598" ry="105.566" transform="translate(0 7.408)" fill="#1ebfbf"/>
            <path id="Shape-14" data-name="Shape" d="M397.051-12.259V618.583a55.578,55.578,0,0,1-55.578,55.578H230.317a55.578,55.578,0,0,1-55.578-55.578V-12.259Z" transform="translate(-69.141 12.259)" fill="#f1f1f1" fill-rule="evenodd"/>
            <rect id="Shape-15" data-name="Shape" width="105.598" height="179.647" transform="translate(105.598 112.048)" fill="#707070"/>
          </g>
        </g>
        <path id="Shape-16" data-name="Shape" d="M1333.765,716.018a2.7,2.7,0,1,1,2.717-2.7A2.71,2.71,0,0,1,1333.765,716.018Zm0-18.922a2.7,2.7,0,1,1,2.717-2.7A2.71,2.71,0,0,1,1333.765,697.1Zm0-18.922a2.7,2.7,0,1,1,2.717-2.7A2.71,2.71,0,0,1,1333.765,678.174Zm0-18.922a2.7,2.7,0,1,1,2.717-2.7A2.71,2.71,0,0,1,1333.765,659.251Zm0-18.922a2.7,2.7,0,1,1,2.717-2.7A2.71,2.71,0,0,1,1333.765,640.329Zm0-18.922a2.7,2.7,0,1,1,2.717-2.7A2.71,2.71,0,0,1,1333.765,621.406Zm-17.854,94.612a2.7,2.7,0,1,1,2.717-2.7A2.71,2.71,0,0,1,1315.911,716.018Zm0-18.922a2.7,2.7,0,1,1,2.717-2.7A2.71,2.71,0,0,1,1315.911,697.1Zm0-18.922a2.7,2.7,0,1,1,2.717-2.7A2.71,2.71,0,0,1,1315.911,678.174Zm0-18.922a2.7,2.7,0,1,1,2.717-2.7A2.71,2.71,0,0,1,1315.911,659.251Zm0-18.922a2.7,2.7,0,1,1,2.717-2.7A2.71,2.71,0,0,1,1315.911,640.329Zm0-18.922a2.7,2.7,0,1,1,2.717-2.7A2.71,2.71,0,0,1,1315.911,621.406Zm-17.854,94.612a2.7,2.7,0,1,1,2.717-2.7A2.71,2.71,0,0,1,1298.056,716.018Zm0-18.922a2.7,2.7,0,1,1,2.717-2.7A2.71,2.71,0,0,1,1298.056,697.1Zm0-18.922a2.7,2.7,0,1,1,2.717-2.7A2.71,2.71,0,0,1,1298.056,678.174Zm0-18.922a2.7,2.7,0,1,1,2.717-2.7A2.71,2.71,0,0,1,1298.056,659.251Zm0-18.922a2.7,2.7,0,1,1,2.717-2.7A2.71,2.71,0,0,1,1298.056,640.329Zm0-18.922a2.7,2.7,0,1,1,2.717-2.7A2.71,2.71,0,0,1,1298.056,621.406Zm-18.631,94.612a2.7,2.7,0,1,1,2.717-2.7A2.71,2.71,0,0,1,1279.426,716.018Zm0-18.922a2.7,2.7,0,1,1,2.717-2.7A2.71,2.71,0,0,1,1279.426,697.1Zm0-18.922a2.7,2.7,0,1,1,2.717-2.7A2.71,2.71,0,0,1,1279.426,678.174Zm0-18.922a2.7,2.7,0,1,1,2.717-2.7A2.71,2.71,0,0,1,1279.426,659.251Zm0-18.922a2.7,2.7,0,1,1,2.717-2.7A2.71,2.71,0,0,1,1279.426,640.329Zm0-18.922a2.7,2.7,0,1,1,2.717-2.7A2.71,2.71,0,0,1,1279.426,621.406Zm-17.854,94.612a2.7,2.7,0,1,1,2.717-2.7A2.71,2.71,0,0,1,1261.571,716.018Zm0-18.922a2.7,2.7,0,1,1,2.717-2.7A2.71,2.71,0,0,1,1261.571,697.1Zm0-18.922a2.7,2.7,0,1,1,2.717-2.7A2.71,2.71,0,0,1,1261.571,678.174Zm0-18.922a2.7,2.7,0,1,1,2.717-2.7A2.71,2.71,0,0,1,1261.571,659.251Zm0-18.922a2.7,2.7,0,1,1,2.717-2.7A2.71,2.71,0,0,1,1261.571,640.329Zm0-18.922a2.7,2.7,0,1,1,2.717-2.7A2.71,2.71,0,0,1,1261.571,621.406Zm-17.854,94.612a2.7,2.7,0,1,1,2.717-2.7A2.71,2.71,0,0,1,1243.717,716.018Zm0-18.922a2.7,2.7,0,1,1,2.717-2.7A2.71,2.71,0,0,1,1243.717,697.1Zm0-18.922a2.7,2.7,0,1,1,2.717-2.7A2.71,2.71,0,0,1,1243.717,678.174Zm0-18.922a2.7,2.7,0,1,1,2.717-2.7A2.71,2.71,0,0,1,1243.717,659.251Zm0-18.922a2.7,2.7,0,1,1,2.717-2.7A2.71,2.71,0,0,1,1243.717,640.329Zm0-18.922a2.7,2.7,0,1,1,2.717-2.7A2.71,2.71,0,0,1,1243.717,621.406Zm90.048,208.522a2.7,2.7,0,1,1,2.717-2.7A2.71,2.71,0,0,1,1333.765,829.929Zm0-18.922a2.7,2.7,0,1,1,2.717-2.7A2.71,2.71,0,0,1,1333.765,811.006Zm0-18.922a2.7,2.7,0,1,1,2.717-2.7A2.71,2.71,0,0,1,1333.765,792.084Zm0-18.922a2.7,2.7,0,1,1,2.717-2.7A2.71,2.71,0,0,1,1333.765,773.161Zm0-18.922a2.7,2.7,0,1,1,2.717-2.7A2.71,2.71,0,0,1,1333.765,754.239Zm0-18.922a2.7,2.7,0,1,1,2.717-2.7A2.71,2.71,0,0,1,1333.765,735.316Zm-17.854,94.612a2.7,2.7,0,1,1,2.717-2.7A2.71,2.71,0,0,1,1315.911,829.929Zm0-18.922a2.7,2.7,0,1,1,2.717-2.7A2.71,2.71,0,0,1,1315.911,811.006Zm0-18.922a2.7,2.7,0,1,1,2.717-2.7A2.71,2.71,0,0,1,1315.911,792.084Zm0-18.922a2.7,2.7,0,1,1,2.717-2.7A2.71,2.71,0,0,1,1315.911,773.161Zm0-18.922a2.7,2.7,0,1,1,2.717-2.7A2.71,2.71,0,0,1,1315.911,754.239Zm0-18.922a2.7,2.7,0,1,1,2.717-2.7A2.71,2.71,0,0,1,1315.911,735.316Zm-17.854,94.612a2.7,2.7,0,1,1,2.717-2.7A2.71,2.71,0,0,1,1298.056,829.929Zm0-18.922a2.7,2.7,0,1,1,2.717-2.7A2.71,2.71,0,0,1,1298.056,811.006Zm0-18.922a2.7,2.7,0,1,1,2.717-2.7A2.71,2.71,0,0,1,1298.056,792.084Zm0-18.922a2.7,2.7,0,1,1,2.717-2.7A2.71,2.71,0,0,1,1298.056,773.161Zm0-18.922a2.7,2.7,0,1,1,2.717-2.7A2.71,2.71,0,0,1,1298.056,754.239Zm0-18.922a2.7,2.7,0,1,1,2.717-2.7A2.71,2.71,0,0,1,1298.056,735.316Zm-18.631,94.612a2.7,2.7,0,1,1,2.717-2.7A2.71,2.71,0,0,1,1279.426,829.929Zm0-18.922a2.7,2.7,0,1,1,2.717-2.7A2.71,2.71,0,0,1,1279.426,811.006Zm0-18.922a2.7,2.7,0,1,1,2.717-2.7A2.71,2.71,0,0,1,1279.426,792.084Zm0-18.922a2.7,2.7,0,1,1,2.717-2.7A2.71,2.71,0,0,1,1279.426,773.161Zm0-18.922a2.7,2.7,0,1,1,2.717-2.7A2.71,2.71,0,0,1,1279.426,754.239Zm0-18.922a2.7,2.7,0,1,1,2.717-2.7A2.71,2.71,0,0,1,1279.426,735.316Zm-17.854,94.612a2.7,2.7,0,1,1,2.717-2.7A2.71,2.71,0,0,1,1261.571,829.929Zm0-18.922a2.7,2.7,0,1,1,2.717-2.7A2.71,2.71,0,0,1,1261.571,811.006Zm0-18.922a2.7,2.7,0,1,1,2.717-2.7A2.71,2.71,0,0,1,1261.571,792.084Zm0-18.922a2.7,2.7,0,1,1,2.717-2.7A2.71,2.71,0,0,1,1261.571,773.161Zm0-18.922a2.7,2.7,0,1,1,2.717-2.7A2.71,2.71,0,0,1,1261.571,754.239Zm0-18.922a2.7,2.7,0,1,1,2.717-2.7A2.71,2.71,0,0,1,1261.571,735.316Zm-17.854,94.612a2.7,2.7,0,1,1,2.717-2.7A2.71,2.71,0,0,1,1243.717,829.929Zm0-18.922a2.7,2.7,0,1,1,2.717-2.7A2.71,2.71,0,0,1,1243.717,811.006Zm0-18.922a2.7,2.7,0,1,1,2.717-2.7A2.71,2.71,0,0,1,1243.717,792.084Zm0-18.922a2.7,2.7,0,1,1,2.717-2.7A2.71,2.71,0,0,1,1243.717,773.161Zm0-18.922a2.7,2.7,0,1,1,2.717-2.7A2.71,2.71,0,0,1,1243.717,754.239Zm0-18.922a2.7,2.7,0,1,1,2.717-2.7A2.71,2.71,0,0,1,1243.717,735.316Z" transform="translate(-529.113 -56.401)" fill="#02303b" fill-rule="evenodd"/>
        <g id="Shape-17" data-name="Shape" transform="translate(253.814 421.814)">
          <g id="Group_111" data-name="Group 111" transform="translate(0 0)">
            <ellipse id="Ellipse_14" data-name="Ellipse 14" cx="135.198" cy="135.156" rx="135.198" ry="135.156" transform="translate(0 0)" fill="#c9c9c9"/>
            <ellipse id="Ellipse_15" data-name="Ellipse 15" cx="59.265" cy="59.247" rx="59.265" ry="59.247" transform="translate(114.825 27.772)" fill="#1ebfbf"/>
          </g>
        </g>
        <ellipse id="Shape-18" data-name="Shape" cx="42.5" cy="43" rx="42.5" ry="43" transform="translate(179.685 278.383)" fill="#707070"/>
        <ellipse id="Shape-19" data-name="Shape" cx="43.5" cy="42.5" rx="43.5" ry="42.5" transform="translate(578.685 343.383)" fill="#707070"/>
        <ellipse id="Shape-20" data-name="Shape" cx="16" cy="15.5" rx="16" ry="15.5" transform="translate(127.685 247.383)" fill="#707070"/>
        <circle id="Shape-21" data-name="Shape" cx="21" cy="21" r="21" transform="translate(137.685 387.383)" fill="#f2f2f2"/>
      </g>
    </g>
  </g>
</svg>
