<svg xmlns="http://www.w3.org/2000/svg" xmlns:xlink="http://www.w3.org/1999/xlink" width="341.506" height="341.506" viewBox="0 0 341.506 341.506"><defs><style>.a{fill:none;}.b{clip-path:url(#a);}.c{fill:rgba(30,191,191,0.2);}</style><clipPath id="a"><rect class="a" width="250" height="250"/></clipPath></defs><g class="b" transform="translate(0 125) rotate(-30)"><g transform="translate(-118 -2740)"><rect class="c" width="8" height="8" rx="1" transform="translate(118 2740)"/></g><g transform="translate(-102 -2740)"><rect class="c" width="8" height="8" rx="1" transform="translate(118 2740)"/></g><g transform="translate(-86 -2740)"><rect class="c" width="8" height="8" rx="1" transform="translate(118 2740)"/></g><g transform="translate(-70 -2740)"><rect class="c" width="8" height="8" rx="1" transform="translate(118 2740)"/></g><g transform="translate(-54 -2740)"><rect class="c" width="8" height="8" rx="1" transform="translate(118 2740)"/></g><g transform="translate(-38 -2740)"><rect class="c" width="8" height="8" rx="1" transform="translate(118 2740)"/></g><g transform="translate(-22 -2740)"><rect class="c" width="8" height="8" rx="1" transform="translate(118 2740)"/></g><g transform="translate(-6 -2740)"><rect class="c" width="8" height="8" rx="1" transform="translate(118 2740)"/></g><g transform="translate(10 -2740)"><rect class="c" width="8" height="8" rx="1" transform="translate(118 2740)"/></g><g transform="translate(26 -2740)"><rect class="c" width="8" height="8" rx="1" transform="translate(118 2740)"/></g><g transform="translate(42 -2740)"><rect class="c" width="8" height="8" rx="1" transform="translate(118 2740)"/></g><g transform="translate(58 -2740)"><rect class="c" width="8" height="8" rx="1" transform="translate(118 2740)"/></g><g transform="translate(74 -2740)"><rect class="c" width="8" height="8" rx="1" transform="translate(118 2740)"/></g><g transform="translate(90 -2740)"><rect class="c" width="8" height="8" rx="1" transform="translate(118 2740)"/></g><g transform="translate(106 -2740)"><rect class="c" width="8" height="8" rx="1" transform="translate(118 2740)"/></g><g transform="translate(122 -2740)"><rect class="c" width="8" height="8" rx="1" transform="translate(118 2740)"/></g><g transform="translate(-118 -2724)"><rect class="c" width="8" height="8" rx="1" transform="translate(118 2740)"/></g><g transform="translate(-102 -2724)"><rect class="c" width="8" height="8" rx="1" transform="translate(118 2740)"/></g><g transform="translate(-86 -2724)"><rect class="c" width="8" height="8" rx="1" transform="translate(118 2740)"/></g><g transform="translate(-70 -2724)"><rect class="c" width="8" height="8" rx="1" transform="translate(118 2740)"/></g><g transform="translate(-54 -2724)"><rect class="c" width="8" height="8" rx="1" transform="translate(118 2740)"/></g><g transform="translate(-38 -2724)"><rect class="c" width="8" height="8" rx="1" transform="translate(118 2740)"/></g><g transform="translate(-22 -2724)"><rect class="c" width="8" height="8" rx="1" transform="translate(118 2740)"/></g><g transform="translate(-6 -2724)"><rect class="c" width="8" height="8" rx="1" transform="translate(118 2740)"/></g><g transform="translate(10 -2724)"><rect class="c" width="8" height="8" rx="1" transform="translate(118 2740)"/></g><g transform="translate(26 -2724)"><rect class="c" width="8" height="8" rx="1" transform="translate(118 2740)"/></g><g transform="translate(42 -2724)"><rect class="c" width="8" height="8" rx="1" transform="translate(118 2740)"/></g><g transform="translate(58 -2724)"><rect class="c" width="8" height="8" rx="1" transform="translate(118 2740)"/></g><g transform="translate(74 -2724)"><rect class="c" width="8" height="8" rx="1" transform="translate(118 2740)"/></g><g transform="translate(90 -2724)"><rect class="c" width="8" height="8" rx="1" transform="translate(118 2740)"/></g><g transform="translate(106 -2724)"><rect class="c" width="8" height="8" rx="1" transform="translate(118 2740)"/></g><g transform="translate(122 -2724)"><rect class="c" width="8" height="8" rx="1" transform="translate(118 2740)"/></g><g transform="translate(-118 -2708)"><rect class="c" width="8" height="8" rx="1" transform="translate(118 2740)"/></g><g transform="translate(-102 -2708)"><rect class="c" width="8" height="8" rx="1" transform="translate(118 2740)"/></g><g transform="translate(-86 -2708)"><rect class="c" width="8" height="8" rx="1" transform="translate(118 2740)"/></g><g transform="translate(-70 -2708)"><rect class="c" width="8" height="8" rx="1" transform="translate(118 2740)"/></g><g transform="translate(-54 -2708)"><rect class="c" width="8" height="8" rx="1" transform="translate(118 2740)"/></g><g transform="translate(-38 -2708)"><rect class="c" width="8" height="8" rx="1" transform="translate(118 2740)"/></g><g transform="translate(-22 -2708)"><rect class="c" width="8" height="8" rx="1" transform="translate(118 2740)"/></g><g transform="translate(-6 -2708)"><rect class="c" width="8" height="8" rx="1" transform="translate(118 2740)"/></g><g transform="translate(10 -2708)"><rect class="c" width="8" height="8" rx="1" transform="translate(118 2740)"/></g><g transform="translate(26 -2708)"><rect class="c" width="8" height="8" rx="1" transform="translate(118 2740)"/></g><g transform="translate(42 -2708)"><rect class="c" width="8" height="8" rx="1" transform="translate(118 2740)"/></g><g transform="translate(58 -2708)"><rect class="c" width="8" height="8" rx="1" transform="translate(118 2740)"/></g><g transform="translate(74 -2708)"><rect class="c" width="8" height="8" rx="1" transform="translate(118 2740)"/></g><g transform="translate(90 -2708)"><rect class="c" width="8" height="8" rx="1" transform="translate(118 2740)"/></g><g transform="translate(106 -2708)"><rect class="c" width="8" height="8" rx="1" transform="translate(118 2740)"/></g><g transform="translate(122 -2708)"><rect class="c" width="8" height="8" rx="1" transform="translate(118 2740)"/></g><g transform="translate(-118 -2692)"><rect class="c" width="8" height="8" rx="1" transform="translate(118 2740)"/></g><g transform="translate(-102 -2692)"><rect class="c" width="8" height="8" rx="1" transform="translate(118 2740)"/></g><g transform="translate(-86 -2692)"><rect class="c" width="8" height="8" rx="1" transform="translate(118 2740)"/></g><g transform="translate(-70 -2692)"><rect class="c" width="8" height="8" rx="1" transform="translate(118 2740)"/></g><g transform="translate(-54 -2692)"><rect class="c" width="8" height="8" rx="1" transform="translate(118 2740)"/></g><g transform="translate(-38 -2692)"><rect class="c" width="8" height="8" rx="1" transform="translate(118 2740)"/></g><g transform="translate(-22 -2692)"><rect class="c" width="8" height="8" rx="1" transform="translate(118 2740)"/></g><g transform="translate(-6 -2692)"><rect class="c" width="8" height="8" rx="1" transform="translate(118 2740)"/></g><g transform="translate(10 -2692)"><rect class="c" width="8" height="8" rx="1" transform="translate(118 2740)"/></g><g transform="translate(26 -2692)"><rect class="c" width="8" height="8" rx="1" transform="translate(118 2740)"/></g><g transform="translate(42 -2692)"><rect class="c" width="8" height="8" rx="1" transform="translate(118 2740)"/></g><g transform="translate(58 -2692)"><rect class="c" width="8" height="8" rx="1" transform="translate(118 2740)"/></g><g transform="translate(74 -2692)"><rect class="c" width="8" height="8" rx="1" transform="translate(118 2740)"/></g><g transform="translate(90 -2692)"><rect class="c" width="8" height="8" rx="1" transform="translate(118 2740)"/></g><g transform="translate(106 -2692)"><rect class="c" width="8" height="8" rx="1" transform="translate(118 2740)"/></g><g transform="translate(122 -2692)"><rect class="c" width="8" height="8" rx="1" transform="translate(118 2740)"/></g><g transform="translate(-118 -2676)"><rect class="c" width="8" height="8" rx="1" transform="translate(118 2740)"/></g><g transform="translate(-102 -2676)"><rect class="c" width="8" height="8" rx="1" transform="translate(118 2740)"/></g><g transform="translate(-86 -2676)"><rect class="c" width="8" height="8" rx="1" transform="translate(118 2740)"/></g><g transform="translate(-70 -2676)"><rect class="c" width="8" height="8" rx="1" transform="translate(118 2740)"/></g><g transform="translate(-54 -2676)"><rect class="c" width="8" height="8" rx="1" transform="translate(118 2740)"/></g><g transform="translate(-38 -2676)"><rect class="c" width="8" height="8" rx="1" transform="translate(118 2740)"/></g><g transform="translate(-22 -2676)"><rect class="c" width="8" height="8" rx="1" transform="translate(118 2740)"/></g><g transform="translate(-6 -2676)"><rect class="c" width="8" height="8" rx="1" transform="translate(118 2740)"/></g><g transform="translate(10 -2676)"><rect class="c" width="8" height="8" rx="1" transform="translate(118 2740)"/></g><g transform="translate(26 -2676)"><rect class="c" width="8" height="8" rx="1" transform="translate(118 2740)"/></g><g transform="translate(42 -2676)"><rect class="c" width="8" height="8" rx="1" transform="translate(118 2740)"/></g><g transform="translate(58 -2676)"><rect class="c" width="8" height="8" rx="1" transform="translate(118 2740)"/></g><g transform="translate(74 -2676)"><rect class="c" width="8" height="8" rx="1" transform="translate(118 2740)"/></g><g transform="translate(90 -2676)"><rect class="c" width="8" height="8" rx="1" transform="translate(118 2740)"/></g><g transform="translate(106 -2676)"><rect class="c" width="8" height="8" rx="1" transform="translate(118 2740)"/></g><g transform="translate(122 -2676)"><rect class="c" width="8" height="8" rx="1" transform="translate(118 2740)"/></g><g transform="translate(-118 -2660)"><rect class="c" width="8" height="8" rx="1" transform="translate(118 2740)"/></g><g transform="translate(-102 -2660)"><rect class="c" width="8" height="8" rx="1" transform="translate(118 2740)"/></g><g transform="translate(-86 -2660)"><rect class="c" width="8" height="8" rx="1" transform="translate(118 2740)"/></g><g transform="translate(-70 -2660)"><rect class="c" width="8" height="8" rx="1" transform="translate(118 2740)"/></g><g transform="translate(-54 -2660)"><rect class="c" width="8" height="8" rx="1" transform="translate(118 2740)"/></g><g transform="translate(-38 -2660)"><rect class="c" width="8" height="8" rx="1" transform="translate(118 2740)"/></g><g transform="translate(-22 -2660)"><rect class="c" width="8" height="8" rx="1" transform="translate(118 2740)"/></g><g transform="translate(-6 -2660)"><rect class="c" width="8" height="8" rx="1" transform="translate(118 2740)"/></g><g transform="translate(10 -2660)"><rect class="c" width="8" height="8" rx="1" transform="translate(118 2740)"/></g><g transform="translate(26 -2660)"><rect class="c" width="8" height="8" rx="1" transform="translate(118 2740)"/></g><g transform="translate(42 -2660)"><rect class="c" width="8" height="8" rx="1" transform="translate(118 2740)"/></g><g transform="translate(58 -2660)"><rect class="c" width="8" height="8" rx="1" transform="translate(118 2740)"/></g><g transform="translate(74 -2660)"><rect class="c" width="8" height="8" rx="1" transform="translate(118 2740)"/></g><g transform="translate(90 -2660)"><rect class="c" width="8" height="8" rx="1" transform="translate(118 2740)"/></g><g transform="translate(106 -2660)"><rect class="c" width="8" height="8" rx="1" transform="translate(118 2740)"/></g><g transform="translate(122 -2660)"><rect class="c" width="8" height="8" rx="1" transform="translate(118 2740)"/></g><g transform="translate(-118 -2644)"><rect class="c" width="8" height="8" rx="1" transform="translate(118 2740)"/></g><g transform="translate(-102 -2644)"><rect class="c" width="8" height="8" rx="1" transform="translate(118 2740)"/></g><g transform="translate(-86 -2644)"><rect class="c" width="8" height="8" rx="1" transform="translate(118 2740)"/></g><g transform="translate(-70 -2644)"><rect class="c" width="8" height="8" rx="1" transform="translate(118 2740)"/></g><g transform="translate(-54 -2644)"><rect class="c" width="8" height="8" rx="1" transform="translate(118 2740)"/></g><g transform="translate(-38 -2644)"><rect class="c" width="8" height="8" rx="1" transform="translate(118 2740)"/></g><g transform="translate(-22 -2644)"><rect class="c" width="8" height="8" rx="1" transform="translate(118 2740)"/></g><g transform="translate(-6 -2644)"><rect class="c" width="8" height="8" rx="1" transform="translate(118 2740)"/></g><g transform="translate(10 -2644)"><rect class="c" width="8" height="8" rx="1" transform="translate(118 2740)"/></g><g transform="translate(26 -2644)"><rect class="c" width="8" height="8" rx="1" transform="translate(118 2740)"/></g><g transform="translate(42 -2644)"><rect class="c" width="8" height="8" rx="1" transform="translate(118 2740)"/></g><g transform="translate(58 -2644)"><rect class="c" width="8" height="8" rx="1" transform="translate(118 2740)"/></g><g transform="translate(74 -2644)"><rect class="c" width="8" height="8" rx="1" transform="translate(118 2740)"/></g><g transform="translate(90 -2644)"><rect class="c" width="8" height="8" rx="1" transform="translate(118 2740)"/></g><g transform="translate(106 -2644)"><rect class="c" width="8" height="8" rx="1" transform="translate(118 2740)"/></g><g transform="translate(122 -2644)"><rect class="c" width="8" height="8" rx="1" transform="translate(118 2740)"/></g><g transform="translate(-118 -2628)"><rect class="c" width="8" height="8" rx="1" transform="translate(118 2740)"/></g><g transform="translate(-102 -2628)"><rect class="c" width="8" height="8" rx="1" transform="translate(118 2740)"/></g><g transform="translate(-86 -2628)"><rect class="c" width="8" height="8" rx="1" transform="translate(118 2740)"/></g><g transform="translate(-70 -2628)"><rect class="c" width="8" height="8" rx="1" transform="translate(118 2740)"/></g><g transform="translate(-54 -2628)"><rect class="c" width="8" height="8" rx="1" transform="translate(118 2740)"/></g><g transform="translate(-38 -2628)"><rect class="c" width="8" height="8" rx="1" transform="translate(118 2740)"/></g><g transform="translate(-22 -2628)"><rect class="c" width="8" height="8" rx="1" transform="translate(118 2740)"/></g><g transform="translate(-6 -2628)"><rect class="c" width="8" height="8" rx="1" transform="translate(118 2740)"/></g><g transform="translate(10 -2628)"><rect class="c" width="8" height="8" rx="1" transform="translate(118 2740)"/></g><g transform="translate(26 -2628)"><rect class="c" width="8" height="8" rx="1" transform="translate(118 2740)"/></g><g transform="translate(42 -2628)"><rect class="c" width="8" height="8" rx="1" transform="translate(118 2740)"/></g><g transform="translate(58 -2628)"><rect class="c" width="8" height="8" rx="1" transform="translate(118 2740)"/></g><g transform="translate(74 -2628)"><rect class="c" width="8" height="8" rx="1" transform="translate(118 2740)"/></g><g transform="translate(90 -2628)"><rect class="c" width="8" height="8" rx="1" transform="translate(118 2740)"/></g><g transform="translate(106 -2628)"><rect class="c" width="8" height="8" rx="1" transform="translate(118 2740)"/></g><g transform="translate(122 -2628)"><rect class="c" width="8" height="8" rx="1" transform="translate(118 2740)"/></g><g transform="translate(-118 -2612)"><rect class="c" width="8" height="8" rx="1" transform="translate(118 2740)"/></g><g transform="translate(-102 -2612)"><rect class="c" width="8" height="8" rx="1" transform="translate(118 2740)"/></g><g transform="translate(-86 -2612)"><rect class="c" width="8" height="8" rx="1" transform="translate(118 2740)"/></g><g transform="translate(-70 -2612)"><rect class="c" width="8" height="8" rx="1" transform="translate(118 2740)"/></g><g transform="translate(-54 -2612)"><rect class="c" width="8" height="8" rx="1" transform="translate(118 2740)"/></g><g transform="translate(-38 -2612)"><rect class="c" width="8" height="8" rx="1" transform="translate(118 2740)"/></g><g transform="translate(-22 -2612)"><rect class="c" width="8" height="8" rx="1" transform="translate(118 2740)"/></g><g transform="translate(-6 -2612)"><rect class="c" width="8" height="8" rx="1" transform="translate(118 2740)"/></g><g transform="translate(10 -2612)"><rect class="c" width="8" height="8" rx="1" transform="translate(118 2740)"/></g><g transform="translate(26 -2612)"><rect class="c" width="8" height="8" rx="1" transform="translate(118 2740)"/></g><g transform="translate(42 -2612)"><rect class="c" width="8" height="8" rx="1" transform="translate(118 2740)"/></g><g transform="translate(58 -2612)"><rect class="c" width="8" height="8" rx="1" transform="translate(118 2740)"/></g><g transform="translate(74 -2612)"><rect class="c" width="8" height="8" rx="1" transform="translate(118 2740)"/></g><g transform="translate(90 -2612)"><rect class="c" width="8" height="8" rx="1" transform="translate(118 2740)"/></g><g transform="translate(106 -2612)"><rect class="c" width="8" height="8" rx="1" transform="translate(118 2740)"/></g><g transform="translate(122 -2612)"><rect class="c" width="8" height="8" rx="1" transform="translate(118 2740)"/></g><g transform="translate(-118 -2596)"><rect class="c" width="8" height="8" rx="1" transform="translate(118 2740)"/></g><g transform="translate(-102 -2596)"><rect class="c" width="8" height="8" rx="1" transform="translate(118 2740)"/></g><g transform="translate(-86 -2596)"><rect class="c" width="8" height="8" rx="1" transform="translate(118 2740)"/></g><g transform="translate(-70 -2596)"><rect class="c" width="8" height="8" rx="1" transform="translate(118 2740)"/></g><g transform="translate(-54 -2596)"><rect class="c" width="8" height="8" rx="1" transform="translate(118 2740)"/></g><g transform="translate(-38 -2596)"><rect class="c" width="8" height="8" rx="1" transform="translate(118 2740)"/></g><g transform="translate(-22 -2596)"><rect class="c" width="8" height="8" rx="1" transform="translate(118 2740)"/></g><g transform="translate(-6 -2596)"><rect class="c" width="8" height="8" rx="1" transform="translate(118 2740)"/></g><g transform="translate(10 -2596)"><rect class="c" width="8" height="8" rx="1" transform="translate(118 2740)"/></g><g transform="translate(26 -2596)"><rect class="c" width="8" height="8" rx="1" transform="translate(118 2740)"/></g><g transform="translate(42 -2596)"><rect class="c" width="8" height="8" rx="1" transform="translate(118 2740)"/></g><g transform="translate(58 -2596)"><rect class="c" width="8" height="8" rx="1" transform="translate(118 2740)"/></g><g transform="translate(74 -2596)"><rect class="c" width="8" height="8" rx="1" transform="translate(118 2740)"/></g><g transform="translate(90 -2596)"><rect class="c" width="8" height="8" rx="1" transform="translate(118 2740)"/></g><g transform="translate(106 -2596)"><rect class="c" width="8" height="8" rx="1" transform="translate(118 2740)"/></g><g transform="translate(122 -2596)"><rect class="c" width="8" height="8" rx="1" transform="translate(118 2740)"/></g><g transform="translate(-118 -2580)"><rect class="c" width="8" height="8" rx="1" transform="translate(118 2740)"/></g><g transform="translate(-102 -2580)"><rect class="c" width="8" height="8" rx="1" transform="translate(118 2740)"/></g><g transform="translate(-86 -2580)"><rect class="c" width="8" height="8" rx="1" transform="translate(118 2740)"/></g><g transform="translate(-70 -2580)"><rect class="c" width="8" height="8" rx="1" transform="translate(118 2740)"/></g><g transform="translate(-54 -2580)"><rect class="c" width="8" height="8" rx="1" transform="translate(118 2740)"/></g><g transform="translate(-38 -2580)"><rect class="c" width="8" height="8" rx="1" transform="translate(118 2740)"/></g><g transform="translate(-22 -2580)"><rect class="c" width="8" height="8" rx="1" transform="translate(118 2740)"/></g><g transform="translate(-6 -2580)"><rect class="c" width="8" height="8" rx="1" transform="translate(118 2740)"/></g><g transform="translate(10 -2580)"><rect class="c" width="8" height="8" rx="1" transform="translate(118 2740)"/></g><g transform="translate(26 -2580)"><rect class="c" width="8" height="8" rx="1" transform="translate(118 2740)"/></g><g transform="translate(42 -2580)"><rect class="c" width="8" height="8" rx="1" transform="translate(118 2740)"/></g><g transform="translate(58 -2580)"><rect class="c" width="8" height="8" rx="1" transform="translate(118 2740)"/></g><g transform="translate(74 -2580)"><rect class="c" width="8" height="8" rx="1" transform="translate(118 2740)"/></g><g transform="translate(90 -2580)"><rect class="c" width="8" height="8" rx="1" transform="translate(118 2740)"/></g><g transform="translate(106 -2580)"><rect class="c" width="8" height="8" rx="1" transform="translate(118 2740)"/></g><g transform="translate(122 -2580)"><rect class="c" width="8" height="8" rx="1" transform="translate(118 2740)"/></g><g transform="translate(-118 -2564)"><rect class="c" width="8" height="8" rx="1" transform="translate(118 2740)"/></g><g transform="translate(-102 -2564)"><rect class="c" width="8" height="8" rx="1" transform="translate(118 2740)"/></g><g transform="translate(-86 -2564)"><rect class="c" width="8" height="8" rx="1" transform="translate(118 2740)"/></g><g transform="translate(-70 -2564)"><rect class="c" width="8" height="8" rx="1" transform="translate(118 2740)"/></g><g transform="translate(-54 -2564)"><rect class="c" width="8" height="8" rx="1" transform="translate(118 2740)"/></g><g transform="translate(-38 -2564)"><rect class="c" width="8" height="8" rx="1" transform="translate(118 2740)"/></g><g transform="translate(-22 -2564)"><rect class="c" width="8" height="8" rx="1" transform="translate(118 2740)"/></g><g transform="translate(-6 -2564)"><rect class="c" width="8" height="8" rx="1" transform="translate(118 2740)"/></g><g transform="translate(10 -2564)"><rect class="c" width="8" height="8" rx="1" transform="translate(118 2740)"/></g><g transform="translate(26 -2564)"><rect class="c" width="8" height="8" rx="1" transform="translate(118 2740)"/></g><g transform="translate(42 -2564)"><rect class="c" width="8" height="8" rx="1" transform="translate(118 2740)"/></g><g transform="translate(58 -2564)"><rect class="c" width="8" height="8" rx="1" transform="translate(118 2740)"/></g><g transform="translate(74 -2564)"><rect class="c" width="8" height="8" rx="1" transform="translate(118 2740)"/></g><g transform="translate(90 -2564)"><rect class="c" width="8" height="8" rx="1" transform="translate(118 2740)"/></g><g transform="translate(106 -2564)"><rect class="c" width="8" height="8" rx="1" transform="translate(118 2740)"/></g><g transform="translate(122 -2564)"><rect class="c" width="8" height="8" rx="1" transform="translate(118 2740)"/></g><g transform="translate(-118 -2548)"><rect class="c" width="8" height="8" rx="1" transform="translate(118 2740)"/></g><g transform="translate(-102 -2548)"><rect class="c" width="8" height="8" rx="1" transform="translate(118 2740)"/></g><g transform="translate(-86 -2548)"><rect class="c" width="8" height="8" rx="1" transform="translate(118 2740)"/></g><g transform="translate(-70 -2548)"><rect class="c" width="8" height="8" rx="1" transform="translate(118 2740)"/></g><g transform="translate(-54 -2548)"><rect class="c" width="8" height="8" rx="1" transform="translate(118 2740)"/></g><g transform="translate(-38 -2548)"><rect class="c" width="8" height="8" rx="1" transform="translate(118 2740)"/></g><g transform="translate(-22 -2548)"><rect class="c" width="8" height="8" rx="1" transform="translate(118 2740)"/></g><g transform="translate(-6 -2548)"><rect class="c" width="8" height="8" rx="1" transform="translate(118 2740)"/></g><g transform="translate(10 -2548)"><rect class="c" width="8" height="8" rx="1" transform="translate(118 2740)"/></g><g transform="translate(26 -2548)"><rect class="c" width="8" height="8" rx="1" transform="translate(118 2740)"/></g><g transform="translate(42 -2548)"><rect class="c" width="8" height="8" rx="1" transform="translate(118 2740)"/></g><g transform="translate(58 -2548)"><rect class="c" width="8" height="8" rx="1" transform="translate(118 2740)"/></g><g transform="translate(74 -2548)"><rect class="c" width="8" height="8" rx="1" transform="translate(118 2740)"/></g><g transform="translate(90 -2548)"><rect class="c" width="8" height="8" rx="1" transform="translate(118 2740)"/></g><g transform="translate(106 -2548)"><rect class="c" width="8" height="8" rx="1" transform="translate(118 2740)"/></g><g transform="translate(122 -2548)"><rect class="c" width="8" height="8" rx="1" transform="translate(118 2740)"/></g><g transform="translate(-118 -2532)"><rect class="c" width="8" height="8" rx="1" transform="translate(118 2740)"/></g><g transform="translate(-102 -2532)"><rect class="c" width="8" height="8" rx="1" transform="translate(118 2740)"/></g><g transform="translate(-86 -2532)"><rect class="c" width="8" height="8" rx="1" transform="translate(118 2740)"/></g><g transform="translate(-70 -2532)"><rect class="c" width="8" height="8" rx="1" transform="translate(118 2740)"/></g><g transform="translate(-54 -2532)"><rect class="c" width="8" height="8" rx="1" transform="translate(118 2740)"/></g><g transform="translate(-38 -2532)"><rect class="c" width="8" height="8" rx="1" transform="translate(118 2740)"/></g><g transform="translate(-22 -2532)"><rect class="c" width="8" height="8" rx="1" transform="translate(118 2740)"/></g><g transform="translate(-6 -2532)"><rect class="c" width="8" height="8" rx="1" transform="translate(118 2740)"/></g><g transform="translate(10 -2532)"><rect class="c" width="8" height="8" rx="1" transform="translate(118 2740)"/></g><g transform="translate(26 -2532)"><rect class="c" width="8" height="8" rx="1" transform="translate(118 2740)"/></g><g transform="translate(42 -2532)"><rect class="c" width="8" height="8" rx="1" transform="translate(118 2740)"/></g><g transform="translate(58 -2532)"><rect class="c" width="8" height="8" rx="1" transform="translate(118 2740)"/></g><g transform="translate(74 -2532)"><rect class="c" width="8" height="8" rx="1" transform="translate(118 2740)"/></g><g transform="translate(90 -2532)"><rect class="c" width="8" height="8" rx="1" transform="translate(118 2740)"/></g><g transform="translate(106 -2532)"><rect class="c" width="8" height="8" rx="1" transform="translate(118 2740)"/></g><g transform="translate(122 -2532)"><rect class="c" width="8" height="8" rx="1" transform="translate(118 2740)"/></g><g transform="translate(-118 -2516)"><rect class="c" width="8" height="8" rx="1" transform="translate(118 2740)"/></g><g transform="translate(-102 -2516)"><rect class="c" width="8" height="8" rx="1" transform="translate(118 2740)"/></g><g transform="translate(-86 -2516)"><rect class="c" width="8" height="8" rx="1" transform="translate(118 2740)"/></g><g transform="translate(-70 -2516)"><rect class="c" width="8" height="8" rx="1" transform="translate(118 2740)"/></g><g transform="translate(-54 -2516)"><rect class="c" width="8" height="8" rx="1" transform="translate(118 2740)"/></g><g transform="translate(-38 -2516)"><rect class="c" width="8" height="8" rx="1" transform="translate(118 2740)"/></g><g transform="translate(-22 -2516)"><rect class="c" width="8" height="8" rx="1" transform="translate(118 2740)"/></g><g transform="translate(-6 -2516)"><rect class="c" width="8" height="8" rx="1" transform="translate(118 2740)"/></g><g transform="translate(10 -2516)"><rect class="c" width="8" height="8" rx="1" transform="translate(118 2740)"/></g><g transform="translate(26 -2516)"><rect class="c" width="8" height="8" rx="1" transform="translate(118 2740)"/></g><g transform="translate(42 -2516)"><rect class="c" width="8" height="8" rx="1" transform="translate(118 2740)"/></g><g transform="translate(58 -2516)"><rect class="c" width="8" height="8" rx="1" transform="translate(118 2740)"/></g><g transform="translate(74 -2516)"><rect class="c" width="8" height="8" rx="1" transform="translate(118 2740)"/></g><g transform="translate(90 -2516)"><rect class="c" width="8" height="8" rx="1" transform="translate(118 2740)"/></g><g transform="translate(106 -2516)"><rect class="c" width="8" height="8" rx="1" transform="translate(118 2740)"/></g><g transform="translate(122 -2516)"><rect class="c" width="8" height="8" rx="1" transform="translate(118 2740)"/></g><g transform="translate(-118 -2500)"><rect class="c" width="8" height="8" rx="1" transform="translate(118 2740)"/></g><g transform="translate(-102 -2500)"><rect class="c" width="8" height="8" rx="1" transform="translate(118 2740)"/></g><g transform="translate(-86 -2500)"><rect class="c" width="8" height="8" rx="1" transform="translate(118 2740)"/></g><g transform="translate(-70 -2500)"><rect class="c" width="8" height="8" rx="1" transform="translate(118 2740)"/></g><g transform="translate(-54 -2500)"><rect class="c" width="8" height="8" rx="1" transform="translate(118 2740)"/></g><g transform="translate(-38 -2500)"><rect class="c" width="8" height="8" rx="1" transform="translate(118 2740)"/></g><g transform="translate(-22 -2500)"><rect class="c" width="8" height="8" rx="1" transform="translate(118 2740)"/></g><g transform="translate(-6 -2500)"><rect class="c" width="8" height="8" rx="1" transform="translate(118 2740)"/></g><g transform="translate(10 -2500)"><rect class="c" width="8" height="8" rx="1" transform="translate(118 2740)"/></g><g transform="translate(26 -2500)"><rect class="c" width="8" height="8" rx="1" transform="translate(118 2740)"/></g><g transform="translate(42 -2500)"><rect class="c" width="8" height="8" rx="1" transform="translate(118 2740)"/></g><g transform="translate(58 -2500)"><rect class="c" width="8" height="8" rx="1" transform="translate(118 2740)"/></g><g transform="translate(74 -2500)"><rect class="c" width="8" height="8" rx="1" transform="translate(118 2740)"/></g><g transform="translate(90 -2500)"><rect class="c" width="8" height="8" rx="1" transform="translate(118 2740)"/></g><g transform="translate(106 -2500)"><rect class="c" width="8" height="8" rx="1" transform="translate(118 2740)"/></g><g transform="translate(122 -2500)"><rect class="c" width="8" height="8" rx="1" transform="translate(118 2740)"/></g></g></svg>