<svg xmlns="http://www.w3.org/2000/svg" xmlns:xlink="http://www.w3.org/1999/xlink" width="268.701" height="268.7" viewBox="0 0 268.701 268.7"><defs><style>.a{fill:none;}.b{clip-path:url(#a);}.c{fill:rgba(3,94,115,0.2);}</style><clipPath id="a"><rect class="a" width="190" height="190"/></clipPath></defs><g class="b" transform="translate(134.35) rotate(45)"><g transform="translate(-118 -2740)"><rect class="c" width="8" height="8" rx="1" transform="translate(118 2740)"/></g><g transform="translate(-106 -2740)"><rect class="c" width="8" height="8" rx="1" transform="translate(118 2740)"/></g><g transform="translate(-94 -2740)"><rect class="c" width="8" height="8" rx="1" transform="translate(118 2740)"/></g><g transform="translate(-82 -2740)"><rect class="c" width="8" height="8" rx="1" transform="translate(118 2740)"/></g><g transform="translate(-70 -2740)"><rect class="c" width="8" height="8" rx="1" transform="translate(118 2740)"/></g><g transform="translate(-58 -2740)"><rect class="c" width="8" height="8" rx="1" transform="translate(118 2740)"/></g><g transform="translate(-46 -2740)"><rect class="c" width="8" height="8" rx="1" transform="translate(118 2740)"/></g><g transform="translate(-34 -2740)"><rect class="c" width="8" height="8" rx="1" transform="translate(118 2740)"/></g><g transform="translate(-22 -2740)"><rect class="c" width="8" height="8" rx="1" transform="translate(118 2740)"/></g><g transform="translate(-10 -2740)"><rect class="c" width="8" height="8" rx="1" transform="translate(118 2740)"/></g><g transform="translate(2 -2740)"><rect class="c" width="8" height="8" rx="1" transform="translate(118 2740)"/></g><g transform="translate(14 -2740)"><rect class="c" width="8" height="8" rx="1" transform="translate(118 2740)"/></g><g transform="translate(26 -2740)"><rect class="c" width="8" height="8" rx="1" transform="translate(118 2740)"/></g><g transform="translate(38 -2740)"><rect class="c" width="8" height="8" rx="1" transform="translate(118 2740)"/></g><g transform="translate(50 -2740)"><rect class="c" width="8" height="8" rx="1" transform="translate(118 2740)"/></g><g transform="translate(62 -2740)"><rect class="c" width="8" height="8" rx="1" transform="translate(118 2740)"/></g><g transform="translate(-118 -2728)"><rect class="c" width="8" height="8" rx="1" transform="translate(118 2740)"/></g><g transform="translate(-106 -2728)"><rect class="c" width="8" height="8" rx="1" transform="translate(118 2740)"/></g><g transform="translate(-94 -2728)"><rect class="c" width="8" height="8" rx="1" transform="translate(118 2740)"/></g><g transform="translate(-82 -2728)"><rect class="c" width="8" height="8" rx="1" transform="translate(118 2740)"/></g><g transform="translate(-70 -2728)"><rect class="c" width="8" height="8" rx="1" transform="translate(118 2740)"/></g><g transform="translate(-58 -2728)"><rect class="c" width="8" height="8" rx="1" transform="translate(118 2740)"/></g><g transform="translate(-46 -2728)"><rect class="c" width="8" height="8" rx="1" transform="translate(118 2740)"/></g><g transform="translate(-34 -2728)"><rect class="c" width="8" height="8" rx="1" transform="translate(118 2740)"/></g><g transform="translate(-22 -2728)"><rect class="c" width="8" height="8" rx="1" transform="translate(118 2740)"/></g><g transform="translate(-10 -2728)"><rect class="c" width="8" height="8" rx="1" transform="translate(118 2740)"/></g><g transform="translate(2 -2728)"><rect class="c" width="8" height="8" rx="1" transform="translate(118 2740)"/></g><g transform="translate(14 -2728)"><rect class="c" width="8" height="8" rx="1" transform="translate(118 2740)"/></g><g transform="translate(26 -2728)"><rect class="c" width="8" height="8" rx="1" transform="translate(118 2740)"/></g><g transform="translate(38 -2728)"><rect class="c" width="8" height="8" rx="1" transform="translate(118 2740)"/></g><g transform="translate(50 -2728)"><rect class="c" width="8" height="8" rx="1" transform="translate(118 2740)"/></g><g transform="translate(62 -2728)"><rect class="c" width="8" height="8" rx="1" transform="translate(118 2740)"/></g><g transform="translate(-118 -2716)"><rect class="c" width="8" height="8" rx="1" transform="translate(118 2740)"/></g><g transform="translate(-106 -2716)"><rect class="c" width="8" height="8" rx="1" transform="translate(118 2740)"/></g><g transform="translate(-94 -2716)"><rect class="c" width="8" height="8" rx="1" transform="translate(118 2740)"/></g><g transform="translate(-82 -2716)"><rect class="c" width="8" height="8" rx="1" transform="translate(118 2740)"/></g><g transform="translate(-70 -2716)"><rect class="c" width="8" height="8" rx="1" transform="translate(118 2740)"/></g><g transform="translate(-58 -2716)"><rect class="c" width="8" height="8" rx="1" transform="translate(118 2740)"/></g><g transform="translate(-46 -2716)"><rect class="c" width="8" height="8" rx="1" transform="translate(118 2740)"/></g><g transform="translate(-34 -2716)"><rect class="c" width="8" height="8" rx="1" transform="translate(118 2740)"/></g><g transform="translate(-22 -2716)"><rect class="c" width="8" height="8" rx="1" transform="translate(118 2740)"/></g><g transform="translate(-10 -2716)"><rect class="c" width="8" height="8" rx="1" transform="translate(118 2740)"/></g><g transform="translate(2 -2716)"><rect class="c" width="8" height="8" rx="1" transform="translate(118 2740)"/></g><g transform="translate(14 -2716)"><rect class="c" width="8" height="8" rx="1" transform="translate(118 2740)"/></g><g transform="translate(26 -2716)"><rect class="c" width="8" height="8" rx="1" transform="translate(118 2740)"/></g><g transform="translate(38 -2716)"><rect class="c" width="8" height="8" rx="1" transform="translate(118 2740)"/></g><g transform="translate(50 -2716)"><rect class="c" width="8" height="8" rx="1" transform="translate(118 2740)"/></g><g transform="translate(62 -2716)"><rect class="c" width="8" height="8" rx="1" transform="translate(118 2740)"/></g><g transform="translate(-118 -2704)"><rect class="c" width="8" height="8" rx="1" transform="translate(118 2740)"/></g><g transform="translate(-106 -2704)"><rect class="c" width="8" height="8" rx="1" transform="translate(118 2740)"/></g><g transform="translate(-94 -2704)"><rect class="c" width="8" height="8" rx="1" transform="translate(118 2740)"/></g><g transform="translate(-82 -2704)"><rect class="c" width="8" height="8" rx="1" transform="translate(118 2740)"/></g><g transform="translate(-70 -2704)"><rect class="c" width="8" height="8" rx="1" transform="translate(118 2740)"/></g><g transform="translate(-58 -2704)"><rect class="c" width="8" height="8" rx="1" transform="translate(118 2740)"/></g><g transform="translate(-46 -2704)"><rect class="c" width="8" height="8" rx="1" transform="translate(118 2740)"/></g><g transform="translate(-34 -2704)"><rect class="c" width="8" height="8" rx="1" transform="translate(118 2740)"/></g><g transform="translate(-22 -2704)"><rect class="c" width="8" height="8" rx="1" transform="translate(118 2740)"/></g><g transform="translate(-10 -2704)"><rect class="c" width="8" height="8" rx="1" transform="translate(118 2740)"/></g><g transform="translate(2 -2704)"><rect class="c" width="8" height="8" rx="1" transform="translate(118 2740)"/></g><g transform="translate(14 -2704)"><rect class="c" width="8" height="8" rx="1" transform="translate(118 2740)"/></g><g transform="translate(26 -2704)"><rect class="c" width="8" height="8" rx="1" transform="translate(118 2740)"/></g><g transform="translate(38 -2704)"><rect class="c" width="8" height="8" rx="1" transform="translate(118 2740)"/></g><g transform="translate(50 -2704)"><rect class="c" width="8" height="8" rx="1" transform="translate(118 2740)"/></g><g transform="translate(62 -2704)"><rect class="c" width="8" height="8" rx="1" transform="translate(118 2740)"/></g><g transform="translate(-118 -2692)"><rect class="c" width="8" height="8" rx="1" transform="translate(118 2740)"/></g><g transform="translate(-106 -2692)"><rect class="c" width="8" height="8" rx="1" transform="translate(118 2740)"/></g><g transform="translate(-94 -2692)"><rect class="c" width="8" height="8" rx="1" transform="translate(118 2740)"/></g><g transform="translate(-82 -2692)"><rect class="c" width="8" height="8" rx="1" transform="translate(118 2740)"/></g><g transform="translate(-70 -2692)"><rect class="c" width="8" height="8" rx="1" transform="translate(118 2740)"/></g><g transform="translate(-58 -2692)"><rect class="c" width="8" height="8" rx="1" transform="translate(118 2740)"/></g><g transform="translate(-46 -2692)"><rect class="c" width="8" height="8" rx="1" transform="translate(118 2740)"/></g><g transform="translate(-34 -2692)"><rect class="c" width="8" height="8" rx="1" transform="translate(118 2740)"/></g><g transform="translate(-22 -2692)"><rect class="c" width="8" height="8" rx="1" transform="translate(118 2740)"/></g><g transform="translate(-10 -2692)"><rect class="c" width="8" height="8" rx="1" transform="translate(118 2740)"/></g><g transform="translate(2 -2692)"><rect class="c" width="8" height="8" rx="1" transform="translate(118 2740)"/></g><g transform="translate(14 -2692)"><rect class="c" width="8" height="8" rx="1" transform="translate(118 2740)"/></g><g transform="translate(26 -2692)"><rect class="c" width="8" height="8" rx="1" transform="translate(118 2740)"/></g><g transform="translate(38 -2692)"><rect class="c" width="8" height="8" rx="1" transform="translate(118 2740)"/></g><g transform="translate(50 -2692)"><rect class="c" width="8" height="8" rx="1" transform="translate(118 2740)"/></g><g transform="translate(62 -2692)"><rect class="c" width="8" height="8" rx="1" transform="translate(118 2740)"/></g><g transform="translate(-118 -2680)"><rect class="c" width="8" height="8" rx="1" transform="translate(118 2740)"/></g><g transform="translate(-106 -2680)"><rect class="c" width="8" height="8" rx="1" transform="translate(118 2740)"/></g><g transform="translate(-94 -2680)"><rect class="c" width="8" height="8" rx="1" transform="translate(118 2740)"/></g><g transform="translate(-82 -2680)"><rect class="c" width="8" height="8" rx="1" transform="translate(118 2740)"/></g><g transform="translate(-70 -2680)"><rect class="c" width="8" height="8" rx="1" transform="translate(118 2740)"/></g><g transform="translate(-58 -2680)"><rect class="c" width="8" height="8" rx="1" transform="translate(118 2740)"/></g><g transform="translate(-46 -2680)"><rect class="c" width="8" height="8" rx="1" transform="translate(118 2740)"/></g><g transform="translate(-34 -2680)"><rect class="c" width="8" height="8" rx="1" transform="translate(118 2740)"/></g><g transform="translate(-22 -2680)"><rect class="c" width="8" height="8" rx="1" transform="translate(118 2740)"/></g><g transform="translate(-10 -2680)"><rect class="c" width="8" height="8" rx="1" transform="translate(118 2740)"/></g><g transform="translate(2 -2680)"><rect class="c" width="8" height="8" rx="1" transform="translate(118 2740)"/></g><g transform="translate(14 -2680)"><rect class="c" width="8" height="8" rx="1" transform="translate(118 2740)"/></g><g transform="translate(26 -2680)"><rect class="c" width="8" height="8" rx="1" transform="translate(118 2740)"/></g><g transform="translate(38 -2680)"><rect class="c" width="8" height="8" rx="1" transform="translate(118 2740)"/></g><g transform="translate(50 -2680)"><rect class="c" width="8" height="8" rx="1" transform="translate(118 2740)"/></g><g transform="translate(62 -2680)"><rect class="c" width="8" height="8" rx="1" transform="translate(118 2740)"/></g><g transform="translate(-118 -2668)"><rect class="c" width="8" height="8" rx="1" transform="translate(118 2740)"/></g><g transform="translate(-106 -2668)"><rect class="c" width="8" height="8" rx="1" transform="translate(118 2740)"/></g><g transform="translate(-94 -2668)"><rect class="c" width="8" height="8" rx="1" transform="translate(118 2740)"/></g><g transform="translate(-82 -2668)"><rect class="c" width="8" height="8" rx="1" transform="translate(118 2740)"/></g><g transform="translate(-70 -2668)"><rect class="c" width="8" height="8" rx="1" transform="translate(118 2740)"/></g><g transform="translate(-58 -2668)"><rect class="c" width="8" height="8" rx="1" transform="translate(118 2740)"/></g><g transform="translate(-46 -2668)"><rect class="c" width="8" height="8" rx="1" transform="translate(118 2740)"/></g><g transform="translate(-34 -2668)"><rect class="c" width="8" height="8" rx="1" transform="translate(118 2740)"/></g><g transform="translate(-22 -2668)"><rect class="c" width="8" height="8" rx="1" transform="translate(118 2740)"/></g><g transform="translate(-10 -2668)"><rect class="c" width="8" height="8" rx="1" transform="translate(118 2740)"/></g><g transform="translate(2 -2668)"><rect class="c" width="8" height="8" rx="1" transform="translate(118 2740)"/></g><g transform="translate(14 -2668)"><rect class="c" width="8" height="8" rx="1" transform="translate(118 2740)"/></g><g transform="translate(26 -2668)"><rect class="c" width="8" height="8" rx="1" transform="translate(118 2740)"/></g><g transform="translate(38 -2668)"><rect class="c" width="8" height="8" rx="1" transform="translate(118 2740)"/></g><g transform="translate(50 -2668)"><rect class="c" width="8" height="8" rx="1" transform="translate(118 2740)"/></g><g transform="translate(62 -2668)"><rect class="c" width="8" height="8" rx="1" transform="translate(118 2740)"/></g><g transform="translate(-118 -2656)"><rect class="c" width="8" height="8" rx="1" transform="translate(118 2740)"/></g><g transform="translate(-106 -2656)"><rect class="c" width="8" height="8" rx="1" transform="translate(118 2740)"/></g><g transform="translate(-94 -2656)"><rect class="c" width="8" height="8" rx="1" transform="translate(118 2740)"/></g><g transform="translate(-82 -2656)"><rect class="c" width="8" height="8" rx="1" transform="translate(118 2740)"/></g><g transform="translate(-70 -2656)"><rect class="c" width="8" height="8" rx="1" transform="translate(118 2740)"/></g><g transform="translate(-58 -2656)"><rect class="c" width="8" height="8" rx="1" transform="translate(118 2740)"/></g><g transform="translate(-46 -2656)"><rect class="c" width="8" height="8" rx="1" transform="translate(118 2740)"/></g><g transform="translate(-34 -2656)"><rect class="c" width="8" height="8" rx="1" transform="translate(118 2740)"/></g><g transform="translate(-22 -2656)"><rect class="c" width="8" height="8" rx="1" transform="translate(118 2740)"/></g><g transform="translate(-10 -2656)"><rect class="c" width="8" height="8" rx="1" transform="translate(118 2740)"/></g><g transform="translate(2 -2656)"><rect class="c" width="8" height="8" rx="1" transform="translate(118 2740)"/></g><g transform="translate(14 -2656)"><rect class="c" width="8" height="8" rx="1" transform="translate(118 2740)"/></g><g transform="translate(26 -2656)"><rect class="c" width="8" height="8" rx="1" transform="translate(118 2740)"/></g><g transform="translate(38 -2656)"><rect class="c" width="8" height="8" rx="1" transform="translate(118 2740)"/></g><g transform="translate(50 -2656)"><rect class="c" width="8" height="8" rx="1" transform="translate(118 2740)"/></g><g transform="translate(62 -2656)"><rect class="c" width="8" height="8" rx="1" transform="translate(118 2740)"/></g><g transform="translate(-118 -2644)"><rect class="c" width="8" height="8" rx="1" transform="translate(118 2740)"/></g><g transform="translate(-106 -2644)"><rect class="c" width="8" height="8" rx="1" transform="translate(118 2740)"/></g><g transform="translate(-94 -2644)"><rect class="c" width="8" height="8" rx="1" transform="translate(118 2740)"/></g><g transform="translate(-82 -2644)"><rect class="c" width="8" height="8" rx="1" transform="translate(118 2740)"/></g><g transform="translate(-70 -2644)"><rect class="c" width="8" height="8" rx="1" transform="translate(118 2740)"/></g><g transform="translate(-58 -2644)"><rect class="c" width="8" height="8" rx="1" transform="translate(118 2740)"/></g><g transform="translate(-46 -2644)"><rect class="c" width="8" height="8" rx="1" transform="translate(118 2740)"/></g><g transform="translate(-34 -2644)"><rect class="c" width="8" height="8" rx="1" transform="translate(118 2740)"/></g><g transform="translate(-22 -2644)"><rect class="c" width="8" height="8" rx="1" transform="translate(118 2740)"/></g><g transform="translate(-10 -2644)"><rect class="c" width="8" height="8" rx="1" transform="translate(118 2740)"/></g><g transform="translate(2 -2644)"><rect class="c" width="8" height="8" rx="1" transform="translate(118 2740)"/></g><g transform="translate(14 -2644)"><rect class="c" width="8" height="8" rx="1" transform="translate(118 2740)"/></g><g transform="translate(26 -2644)"><rect class="c" width="8" height="8" rx="1" transform="translate(118 2740)"/></g><g transform="translate(38 -2644)"><rect class="c" width="8" height="8" rx="1" transform="translate(118 2740)"/></g><g transform="translate(50 -2644)"><rect class="c" width="8" height="8" rx="1" transform="translate(118 2740)"/></g><g transform="translate(62 -2644)"><rect class="c" width="8" height="8" rx="1" transform="translate(118 2740)"/></g><g transform="translate(-118 -2632)"><rect class="c" width="8" height="8" rx="1" transform="translate(118 2740)"/></g><g transform="translate(-106 -2632)"><rect class="c" width="8" height="8" rx="1" transform="translate(118 2740)"/></g><g transform="translate(-94 -2632)"><rect class="c" width="8" height="8" rx="1" transform="translate(118 2740)"/></g><g transform="translate(-82 -2632)"><rect class="c" width="8" height="8" rx="1" transform="translate(118 2740)"/></g><g transform="translate(-70 -2632)"><rect class="c" width="8" height="8" rx="1" transform="translate(118 2740)"/></g><g transform="translate(-58 -2632)"><rect class="c" width="8" height="8" rx="1" transform="translate(118 2740)"/></g><g transform="translate(-46 -2632)"><rect class="c" width="8" height="8" rx="1" transform="translate(118 2740)"/></g><g transform="translate(-34 -2632)"><rect class="c" width="8" height="8" rx="1" transform="translate(118 2740)"/></g><g transform="translate(-22 -2632)"><rect class="c" width="8" height="8" rx="1" transform="translate(118 2740)"/></g><g transform="translate(-10 -2632)"><rect class="c" width="8" height="8" rx="1" transform="translate(118 2740)"/></g><g transform="translate(2 -2632)"><rect class="c" width="8" height="8" rx="1" transform="translate(118 2740)"/></g><g transform="translate(14 -2632)"><rect class="c" width="8" height="8" rx="1" transform="translate(118 2740)"/></g><g transform="translate(26 -2632)"><rect class="c" width="8" height="8" rx="1" transform="translate(118 2740)"/></g><g transform="translate(38 -2632)"><rect class="c" width="8" height="8" rx="1" transform="translate(118 2740)"/></g><g transform="translate(50 -2632)"><rect class="c" width="8" height="8" rx="1" transform="translate(118 2740)"/></g><g transform="translate(62 -2632)"><rect class="c" width="8" height="8" rx="1" transform="translate(118 2740)"/></g><g transform="translate(-118 -2620)"><rect class="c" width="8" height="8" rx="1" transform="translate(118 2740)"/></g><g transform="translate(-106 -2620)"><rect class="c" width="8" height="8" rx="1" transform="translate(118 2740)"/></g><g transform="translate(-94 -2620)"><rect class="c" width="8" height="8" rx="1" transform="translate(118 2740)"/></g><g transform="translate(-82 -2620)"><rect class="c" width="8" height="8" rx="1" transform="translate(118 2740)"/></g><g transform="translate(-70 -2620)"><rect class="c" width="8" height="8" rx="1" transform="translate(118 2740)"/></g><g transform="translate(-58 -2620)"><rect class="c" width="8" height="8" rx="1" transform="translate(118 2740)"/></g><g transform="translate(-46 -2620)"><rect class="c" width="8" height="8" rx="1" transform="translate(118 2740)"/></g><g transform="translate(-34 -2620)"><rect class="c" width="8" height="8" rx="1" transform="translate(118 2740)"/></g><g transform="translate(-22 -2620)"><rect class="c" width="8" height="8" rx="1" transform="translate(118 2740)"/></g><g transform="translate(-10 -2620)"><rect class="c" width="8" height="8" rx="1" transform="translate(118 2740)"/></g><g transform="translate(2 -2620)"><rect class="c" width="8" height="8" rx="1" transform="translate(118 2740)"/></g><g transform="translate(14 -2620)"><rect class="c" width="8" height="8" rx="1" transform="translate(118 2740)"/></g><g transform="translate(26 -2620)"><rect class="c" width="8" height="8" rx="1" transform="translate(118 2740)"/></g><g transform="translate(38 -2620)"><rect class="c" width="8" height="8" rx="1" transform="translate(118 2740)"/></g><g transform="translate(50 -2620)"><rect class="c" width="8" height="8" rx="1" transform="translate(118 2740)"/></g><g transform="translate(62 -2620)"><rect class="c" width="8" height="8" rx="1" transform="translate(118 2740)"/></g><g transform="translate(-118 -2608)"><rect class="c" width="8" height="8" rx="1" transform="translate(118 2740)"/></g><g transform="translate(-106 -2608)"><rect class="c" width="8" height="8" rx="1" transform="translate(118 2740)"/></g><g transform="translate(-94 -2608)"><rect class="c" width="8" height="8" rx="1" transform="translate(118 2740)"/></g><g transform="translate(-82 -2608)"><rect class="c" width="8" height="8" rx="1" transform="translate(118 2740)"/></g><g transform="translate(-70 -2608)"><rect class="c" width="8" height="8" rx="1" transform="translate(118 2740)"/></g><g transform="translate(-58 -2608)"><rect class="c" width="8" height="8" rx="1" transform="translate(118 2740)"/></g><g transform="translate(-46 -2608)"><rect class="c" width="8" height="8" rx="1" transform="translate(118 2740)"/></g><g transform="translate(-34 -2608)"><rect class="c" width="8" height="8" rx="1" transform="translate(118 2740)"/></g><g transform="translate(-22 -2608)"><rect class="c" width="8" height="8" rx="1" transform="translate(118 2740)"/></g><g transform="translate(-10 -2608)"><rect class="c" width="8" height="8" rx="1" transform="translate(118 2740)"/></g><g transform="translate(2 -2608)"><rect class="c" width="8" height="8" rx="1" transform="translate(118 2740)"/></g><g transform="translate(14 -2608)"><rect class="c" width="8" height="8" rx="1" transform="translate(118 2740)"/></g><g transform="translate(26 -2608)"><rect class="c" width="8" height="8" rx="1" transform="translate(118 2740)"/></g><g transform="translate(38 -2608)"><rect class="c" width="8" height="8" rx="1" transform="translate(118 2740)"/></g><g transform="translate(50 -2608)"><rect class="c" width="8" height="8" rx="1" transform="translate(118 2740)"/></g><g transform="translate(62 -2608)"><rect class="c" width="8" height="8" rx="1" transform="translate(118 2740)"/></g><g transform="translate(-118 -2596)"><rect class="c" width="8" height="8" rx="1" transform="translate(118 2740)"/></g><g transform="translate(-106 -2596)"><rect class="c" width="8" height="8" rx="1" transform="translate(118 2740)"/></g><g transform="translate(-94 -2596)"><rect class="c" width="8" height="8" rx="1" transform="translate(118 2740)"/></g><g transform="translate(-82 -2596)"><rect class="c" width="8" height="8" rx="1" transform="translate(118 2740)"/></g><g transform="translate(-70 -2596)"><rect class="c" width="8" height="8" rx="1" transform="translate(118 2740)"/></g><g transform="translate(-58 -2596)"><rect class="c" width="8" height="8" rx="1" transform="translate(118 2740)"/></g><g transform="translate(-46 -2596)"><rect class="c" width="8" height="8" rx="1" transform="translate(118 2740)"/></g><g transform="translate(-34 -2596)"><rect class="c" width="8" height="8" rx="1" transform="translate(118 2740)"/></g><g transform="translate(-22 -2596)"><rect class="c" width="8" height="8" rx="1" transform="translate(118 2740)"/></g><g transform="translate(-10 -2596)"><rect class="c" width="8" height="8" rx="1" transform="translate(118 2740)"/></g><g transform="translate(2 -2596)"><rect class="c" width="8" height="8" rx="1" transform="translate(118 2740)"/></g><g transform="translate(14 -2596)"><rect class="c" width="8" height="8" rx="1" transform="translate(118 2740)"/></g><g transform="translate(26 -2596)"><rect class="c" width="8" height="8" rx="1" transform="translate(118 2740)"/></g><g transform="translate(38 -2596)"><rect class="c" width="8" height="8" rx="1" transform="translate(118 2740)"/></g><g transform="translate(50 -2596)"><rect class="c" width="8" height="8" rx="1" transform="translate(118 2740)"/></g><g transform="translate(62 -2596)"><rect class="c" width="8" height="8" rx="1" transform="translate(118 2740)"/></g><g transform="translate(-118 -2584)"><rect class="c" width="8" height="8" rx="1" transform="translate(118 2740)"/></g><g transform="translate(-106 -2584)"><rect class="c" width="8" height="8" rx="1" transform="translate(118 2740)"/></g><g transform="translate(-94 -2584)"><rect class="c" width="8" height="8" rx="1" transform="translate(118 2740)"/></g><g transform="translate(-82 -2584)"><rect class="c" width="8" height="8" rx="1" transform="translate(118 2740)"/></g><g transform="translate(-70 -2584)"><rect class="c" width="8" height="8" rx="1" transform="translate(118 2740)"/></g><g transform="translate(-58 -2584)"><rect class="c" width="8" height="8" rx="1" transform="translate(118 2740)"/></g><g transform="translate(-46 -2584)"><rect class="c" width="8" height="8" rx="1" transform="translate(118 2740)"/></g><g transform="translate(-34 -2584)"><rect class="c" width="8" height="8" rx="1" transform="translate(118 2740)"/></g><g transform="translate(-22 -2584)"><rect class="c" width="8" height="8" rx="1" transform="translate(118 2740)"/></g><g transform="translate(-10 -2584)"><rect class="c" width="8" height="8" rx="1" transform="translate(118 2740)"/></g><g transform="translate(2 -2584)"><rect class="c" width="8" height="8" rx="1" transform="translate(118 2740)"/></g><g transform="translate(14 -2584)"><rect class="c" width="8" height="8" rx="1" transform="translate(118 2740)"/></g><g transform="translate(26 -2584)"><rect class="c" width="8" height="8" rx="1" transform="translate(118 2740)"/></g><g transform="translate(38 -2584)"><rect class="c" width="8" height="8" rx="1" transform="translate(118 2740)"/></g><g transform="translate(50 -2584)"><rect class="c" width="8" height="8" rx="1" transform="translate(118 2740)"/></g><g transform="translate(62 -2584)"><rect class="c" width="8" height="8" rx="1" transform="translate(118 2740)"/></g><g transform="translate(-118 -2572)"><rect class="c" width="8" height="8" rx="1" transform="translate(118 2740)"/></g><g transform="translate(-106 -2572)"><rect class="c" width="8" height="8" rx="1" transform="translate(118 2740)"/></g><g transform="translate(-94 -2572)"><rect class="c" width="8" height="8" rx="1" transform="translate(118 2740)"/></g><g transform="translate(-82 -2572)"><rect class="c" width="8" height="8" rx="1" transform="translate(118 2740)"/></g><g transform="translate(-70 -2572)"><rect class="c" width="8" height="8" rx="1" transform="translate(118 2740)"/></g><g transform="translate(-58 -2572)"><rect class="c" width="8" height="8" rx="1" transform="translate(118 2740)"/></g><g transform="translate(-46 -2572)"><rect class="c" width="8" height="8" rx="1" transform="translate(118 2740)"/></g><g transform="translate(-34 -2572)"><rect class="c" width="8" height="8" rx="1" transform="translate(118 2740)"/></g><g transform="translate(-22 -2572)"><rect class="c" width="8" height="8" rx="1" transform="translate(118 2740)"/></g><g transform="translate(-10 -2572)"><rect class="c" width="8" height="8" rx="1" transform="translate(118 2740)"/></g><g transform="translate(2 -2572)"><rect class="c" width="8" height="8" rx="1" transform="translate(118 2740)"/></g><g transform="translate(14 -2572)"><rect class="c" width="8" height="8" rx="1" transform="translate(118 2740)"/></g><g transform="translate(26 -2572)"><rect class="c" width="8" height="8" rx="1" transform="translate(118 2740)"/></g><g transform="translate(38 -2572)"><rect class="c" width="8" height="8" rx="1" transform="translate(118 2740)"/></g><g transform="translate(50 -2572)"><rect class="c" width="8" height="8" rx="1" transform="translate(118 2740)"/></g><g transform="translate(62 -2572)"><rect class="c" width="8" height="8" rx="1" transform="translate(118 2740)"/></g><g transform="translate(-118 -2560)"><rect class="c" width="8" height="8" rx="1" transform="translate(118 2740)"/></g><g transform="translate(-106 -2560)"><rect class="c" width="8" height="8" rx="1" transform="translate(118 2740)"/></g><g transform="translate(-94 -2560)"><rect class="c" width="8" height="8" rx="1" transform="translate(118 2740)"/></g><g transform="translate(-82 -2560)"><rect class="c" width="8" height="8" rx="1" transform="translate(118 2740)"/></g><g transform="translate(-70 -2560)"><rect class="c" width="8" height="8" rx="1" transform="translate(118 2740)"/></g><g transform="translate(-58 -2560)"><rect class="c" width="8" height="8" rx="1" transform="translate(118 2740)"/></g><g transform="translate(-46 -2560)"><rect class="c" width="8" height="8" rx="1" transform="translate(118 2740)"/></g><g transform="translate(-34 -2560)"><rect class="c" width="8" height="8" rx="1" transform="translate(118 2740)"/></g><g transform="translate(-22 -2560)"><rect class="c" width="8" height="8" rx="1" transform="translate(118 2740)"/></g><g transform="translate(-10 -2560)"><rect class="c" width="8" height="8" rx="1" transform="translate(118 2740)"/></g><g transform="translate(2 -2560)"><rect class="c" width="8" height="8" rx="1" transform="translate(118 2740)"/></g><g transform="translate(14 -2560)"><rect class="c" width="8" height="8" rx="1" transform="translate(118 2740)"/></g><g transform="translate(26 -2560)"><rect class="c" width="8" height="8" rx="1" transform="translate(118 2740)"/></g><g transform="translate(38 -2560)"><rect class="c" width="8" height="8" rx="1" transform="translate(118 2740)"/></g><g transform="translate(50 -2560)"><rect class="c" width="8" height="8" rx="1" transform="translate(118 2740)"/></g><g transform="translate(62 -2560)"><rect class="c" width="8" height="8" rx="1" transform="translate(118 2740)"/></g></g></svg>